<?xml version="1.0" encoding="UTF-8"?>
<!-- Generator: Adobe Illustrator 14.0.0, SVG Export Plug-In . SVG Version: 6.00 Build 43363)  -->
<!DOCTYPE svg PUBLIC "-//W3C//DTD SVG 1.1//EN" "http://www.w3.org/Graphics/SVG/1.1/DTD/svg11.dtd">
<svg version="1.1" id="Calque_1" xmlns="http://www.w3.org/2000/svg" xmlns:xlink="http://www.w3.org/1999/xlink" x="0px" y="0px" width="147.402px" height="48.189px" viewBox="135.91 71.405 147.402 48.189" enable-background="new 135.91 71.405 147.402 48.189" xml:space="preserve">
<g>
	<g>
		<polygon fill="#177C8B" points="153.98,98.953 143.271,92.771 153.98,86.588 164.689,92.771   "/>
		<polygon fill="#177C8B" points="153.98,94.75 143.271,88.566 153.98,82.385 164.689,88.566   "/>
		<polygon fill="#177C8B" points="143.271,92.771 143.271,88.57 153.981,94.752 164.695,88.566 164.695,92.767 153.981,98.952   "/>
		<polygon fill="#333031" fill-opacity="0.3" points="143.271,92.771 143.271,88.57 153.981,94.752 164.695,88.566 164.695,92.767     153.981,98.952   "/>
		<g>
			<g>
				<polygon fill="#FDC95B" points="153.981,98.952 164.695,92.767 175.409,98.952 164.695,105.138     "/>
			</g>
		</g>
		<polygon fill="#FDC95B" points="153.981,97.812 153.981,98.952 164.695,105.138 175.409,98.952 175.409,97.812 164.695,103.997       "/>
		<polygon opacity="0.3" fill="#333031" enable-background="new    " points="153.981,97.812 153.981,98.952 164.695,105.138     175.409,98.952 175.409,97.812 164.695,103.997   "/>
		<g>
			<g>
				<polygon fill="#FDC95B" points="153.981,97.812 164.695,91.626 175.409,97.812 164.695,103.997     "/>
			</g>
		</g>
		<polygon fill="#DD3B35" points="153.982,111.318 143.274,105.136 153.982,98.952 164.691,105.136   "/>
		<polygon fill="#DD3B35" points="153.982,110.177 143.274,103.994 153.982,97.812 164.691,103.994   "/>
		<polygon fill="#DD3B35" points="143.274,103.994 143.274,105.136 153.982,111.318 164.695,105.138 164.695,103.997     153.985,109.983   "/>
		<g>
			<polygon opacity="0.35" fill="#333031" enable-background="new    " points="143.274,103.994 143.274,105.136 153.982,111.318      164.695,105.138 164.695,103.997 153.985,109.983    "/>
		</g>
		<g>
			<polygon fill="#DD3B35" fill-opacity="0.75" points="162.018,93.173 164.695,91.627 167.373,93.173 164.695,94.719    "/>
			<polygon fill="#DD3B35" points="162.018,90.112 164.695,88.566 167.373,90.112 164.695,91.658    "/>
			<polygon fill="#DD3B35" points="162.018,90.112 162.018,93.173 164.695,94.719 167.373,93.173 167.373,90.112 164.695,91.658         "/>
			<polygon fill="#333031" fill-opacity="0.3" points="162.018,90.112 162.018,93.173 164.695,94.719 167.373,93.173      167.373,90.112 164.695,91.658    "/>
		</g>
		<g>
			<polygon fill="#0A4A62" points="164.695,91.654 167.373,93.199 170.05,91.654 170.05,94.689 167.375,96.236 164.695,94.689         "/>
			<g>
				<polygon fill="#0A4A62" points="164.695,91.654 167.373,90.108 170.05,91.654 167.373,93.199     "/>
			</g>
		</g>
		<g>
			<polygon fill="#FFFFFF" points="159.34,91.665 162.017,90.12 164.694,91.665 162.017,93.211    "/>
			<polygon fill="none" points="159.341,94.758 162.019,93.212 164.695,94.758 162.019,96.305    "/>
			<polygon fill="none" points="159.341,91.643 162.019,90.097 164.695,91.643 162.019,93.187    "/>
			<polygon fill="#706F6F" points="159.341,91.643 159.341,94.758 162.019,96.305 164.696,94.758 164.695,91.643 162.019,93.187         "/>
		</g>
		<polygon fill="#333031" fill-opacity="0.3" points="164.695,91.654 167.373,93.199 170.05,91.654 170.05,94.689 167.375,96.236     164.695,94.689   "/>
		<polygon opacity="0.3" enable-background="new    " points="159.341,91.643 159.341,94.758 162.019,96.305 164.696,94.758     164.695,91.643 162.019,93.187   "/>
	</g>
	<g>
		<path fill="#DD3B35" d="M180.128,93.771h3.83v6.748H184l4.232-6.748h4.013l-4.963,7.477l5.288,7.52h-4.479L184,102.281h-0.041    v6.485h-3.83V93.771L180.128,93.771z"/>
		<path fill="#DD3B35" d="M197.78,106.599l-0.791,2.168h-4.112l6.019-14.996h3.019l5.957,14.996h-4.155l-0.729-2.168H197.78z     M198.832,103.558h3.142l-1.54-5.125h-0.02h-0.04L198.832,103.558z"/>
		<path fill="#DD3B35" d="M210.71,97.136h-2.961v-3.365h9.727v3.365h-2.936v11.631h-3.832V97.136H210.71z"/>
		<path fill="#DD3B35" d="M222.24,106.599l-0.787,2.168h-4.116l6.019-14.996h3.019l5.958,14.996h-4.154l-0.729-2.168H222.24z     M223.294,103.558h3.141l-1.54-5.125h-0.02h-0.042L223.294,103.558z"/>
		<path fill="#DD3B35" d="M233.976,93.771h3.83v11.631h4.438v3.363h-8.268V93.771L233.976,93.771z"/>
		<path fill="#DD3B35" d="M250.997,93.488c4.622,0,7.924,3.606,7.924,7.78c0,4.175-3.284,7.779-7.943,7.779    c-4.722,0-7.883-3.746-7.883-7.597c0-0.993,0.143-2.107,0.588-3.201C244.473,96.304,246.803,93.488,250.997,93.488z     M251.058,105.686c2.717,0,4.032-2.473,4.032-4.396c0-1.945-1.315-4.438-4.072-4.438c-2.656,0-4.094,2.271-4.094,4.377    C246.924,103.537,248.486,105.686,251.058,105.686z"/>
		<path fill="#DD3B35" d="M276.289,100.234c0.02,0.264,0.02,0.487,0.02,0.791c0,5.025-3.85,8.044-8.003,8.044    c-4.539,0-7.964-3.546-7.964-7.861c0-4.479,3.605-7.722,8.023-7.722c3.586,0,6.669,2.412,7.499,5.311h-4.299    c-0.585-1.055-1.679-1.946-3.302-1.946c-1.885,0-4.092,1.399-4.092,4.357c0,3.141,2.229,4.498,4.113,4.498    c1.903,0,3.18-0.952,3.586-2.412h-4.477v-3.06H276.289L276.289,100.234z"/>
	</g>
	<g>
		<path fill="#333031" d="M182.037,83.193c0.809,0,1.297,0.128,1.669,0.348c0.875,0.462,1.119,1.335,1.119,2.04    c0,0.258,0,1.491-1.312,2.069v0.025c1.76,0.501,1.9,2.042,1.9,2.492c-0.011,1.168-0.576,1.913-1.503,2.312    c-0.411,0.141-0.911,0.219-1.515,0.219h-2.376v-9.505H182.037z M180.405,87.548h1.721c0.566,0,1.015-0.065,1.35-0.244    c0.796-0.45,0.961-1.104,0.961-1.773c0-0.86-0.475-1.489-0.961-1.708c-0.27-0.153-0.617-0.27-1.44-0.281h-1.631V87.548z     M180.405,92.351h2.003c0.501,0,0.976-0.064,1.361-0.206c0.718-0.309,1.248-0.925,1.259-1.977c0-0.951-0.501-1.695-1.284-2.043    c-0.514-0.218-0.848-0.231-1.619-0.231h-1.721L180.405,92.351L180.405,92.351z"/>
		<path fill="#333031" d="M186.737,89.333c0.025,2.222,1.887,3.211,3.223,3.198c1.26,0,2.364-0.642,2.904-1.798h0.396    c-0.629,1.449-1.939,2.145-3.313,2.132c-2.082,0-3.584-1.542-3.584-3.57v0.013c0-2.043,1.568-3.585,3.597-3.585    c1.825,0,3.48,1.311,3.569,3.417l-0.011,0.193H186.737L186.737,89.333z M193.159,88.999c-0.078-1.644-1.607-3.006-3.199-2.941    c-1.683,0-3.107,1.221-3.21,2.941H193.159z"/>
		<path fill="#333031" d="M195.275,87.201h0.025c0.425-0.989,1.657-1.503,2.736-1.479c0.873,0,1.594,0.231,2.133,0.681    c0.667,0.566,0.988,1.478,0.988,2.698v3.597h-0.359v-3.597c0-1.183-0.321-1.939-0.835-2.401c-0.526-0.476-1.232-0.643-1.927-0.643    c-1.708,0.026-2.762,1.015-2.762,2.723v3.918h-0.359v-6.808h0.359V87.201L195.275,87.201z"/>
		<path fill="#333031" d="M209.631,90.554c-0.474,1.386-1.759,2.286-3.378,2.312c-1.978,0-3.582-1.439-3.582-3.57v0.013    c0-2.018,1.515-3.585,3.582-3.585c1.388,0,2.852,0.771,3.391,2.376h-0.397c-0.526-1.503-1.952-2.054-2.98-2.041    c-0.964,0.012-1.591,0.282-2.299,0.912c-0.55,0.5-0.937,1.399-0.937,2.324c0,1.926,1.489,3.237,3.225,3.237    c1.54-0.013,2.645-0.964,2.98-1.978H209.631L209.631,90.554z"/>
		<path fill="#333031" d="M211.454,87.201h0.026c0.424-0.989,1.658-1.503,2.735-1.479c0.873,0,1.592,0.231,2.131,0.681    c0.669,0.566,0.99,1.478,0.99,2.698v3.597h-0.357v-3.597c0-1.183-0.324-1.939-0.837-2.401c-0.528-0.476-1.232-0.643-1.927-0.643    c-1.706,0.026-2.762,1.015-2.762,2.723v3.918h-0.36v-9.505h0.36V87.201L211.454,87.201z"/>
	</g>
</g>
</svg>